# xmcd
#
# Track frame offsets: 
#        150
#        22410
#        45337
#        67027
#        90467
#        112310
#        132512
#        152387
#        167737
#        180632
#        200967
#        226172
#        247175
#        271455
#        291122
#
# Disc length: 4252 seconds
#
# Revision: 1
# Processed by: cddbd v1.5.2PL0 Copyright (c) Steve Scherf et al.
# Submitted via: ExactAudioCopyFreeDBPlugin 1.0
#
DISCID=e1109a0f
DTITLE=張雨生 - 張雨生 - SPECIAL (XRCD)
DYEAR=2007
DGENRE=Country
TTITLE0=我想把整片天空打開
TTITLE1=無題
TTITLE2=帶我去月球
TTITLE3=這一夜我睡不著
TTITLE4=我就要轉彎
TTITLE5=總髮遊
TTITLE6=湖心草深長
TTITLE7=魔幻台北
TTITLE8=無知的歲月
TTITLE9=我呼吸我感覺我存在
TTITLE10=兄弟呀
TTITLE11=大海
TTITLE12=妹妹晚安
TTITLE13=不想失去你
TTITLE14=一天到晚游泳的魚
EXTD=
EXTT0=
EXTT1=
EXTT2=
EXTT3=
EXTT4=
EXTT5=
EXTT6=
EXTT7=
EXTT8=
EXTT9=
EXTT10=
EXTT11=
EXTT12=
EXTT13=
EXTT14=
PLAYORDER=
